# xmcd
#
# Track frame offsets:
#	150
#	27521
#	56184
#	81424
#	110021
#	163455
#	183374
#
# Disc length: 2898 seconds
#
# Revision: 0
# Processed by: cddbd v1.5.2PL0 Copyright (c) Steve Scherf et al.
# Submitted via: EasyCDDAExtractor 2011.3.0.0
#
DISCID=650b5007
DTITLE=萧十三郎
DYEAR=1900
DGENRE=
TTITLE0=再见萤火虫
TTITLE1=尘埃之舞
TTITLE2=迷藏
TTITLE3=侠骨柔情前世歌
TTITLE4=小娘皮
TTITLE5=小楼一夜听春水
TTITLE6=给你唱支歌
EXTD=
EXTT0=
EXTT1=
EXTT2=
EXTT3=
EXTT4=
EXTT5=
EXTT6=
PLAYORDER=
